<svg width="60" height="60" viewBox="0 0 60 60" fill="none" xmlns="http://www.w3.org/2000/svg">
<g clip-path="url(#clip0_201_37)">
<path d="M57.4055 31.5539L34.1969 0.607266C33.7483 0.0121879 32.9353 -0.172734 32.2761 0.175079L5.36694 14.3475L30.4232 47.7533L56.8983 33.8061C57.2919 33.5992 57.5757 33.2312 57.671 32.7973C57.7699 32.3633 57.6729 31.9092 57.4055 31.5539Z" fill="#FAD6A5"/>
<path d="M56.4571 36.7065L30.2236 50.4596L30.6209 51.2194L56.8544 37.4646L56.4571 36.7065Z" fill="#FAD6A5"/>
<path d="M29.8719 55.0556L56.9586 40.8521L56.5613 40.0923L29.4727 54.2975L29.8719 55.0556Z" fill="#FAD6A5"/>
<path d="M56.9733 42.7196L28.0318 57.8862C27.1529 58.1095 27.3543 57.4229 27.3524 56.3481C27.4348 53.4587 28.1398 50.9337 28.9235 50.1079L3.86912 16.7021C2.75033 18.0443 1.78717 22.221 2.58369 26.7675L27.3268 59.7575C27.5062 59.9955 27.834 60.0688 28.0959 59.9297L57.1437 44.5416C57.4019 44.4042 57.5796 44.1516 57.6216 43.8622C57.6601 43.5729 57.5612 43.2818 57.3488 43.0785L56.9733 42.7196Z" fill="#FAD6A5"/>
<path d="M23.731 14.1165C24.2287 13.8484 24.8395 13.6104 25.5634 13.4023C26.2967 13.1891 26.8565 13.0814 27.2431 13.0792L28.7148 15.8121L28.1795 16.1004C26.5215 15.0913 24.9787 14.9711 23.5512 15.7398C22.9314 16.0736 22.4618 16.5627 22.1425 17.2072C21.8276 17.8372 21.699 18.5546 21.7569 19.3593C21.8097 20.1547 22.051 20.9516 22.4809 21.7499C22.9765 22.6702 23.5701 23.4349 24.2615 24.0438C24.9623 24.6478 25.7277 25.023 26.5578 25.1696C27.3973 25.3112 28.249 25.1493 29.113 24.684C29.9113 24.2541 30.7334 23.036 31.5792 21.0298L32.366 21.4784L30.8588 24.8887C30.5771 25.1979 30.282 25.4598 29.9735 25.6744C29.6795 25.8933 29.3447 26.1039 28.969 26.3062C27.9829 26.8373 26.9805 27.0682 25.9619 26.9989C24.9433 26.9296 23.9976 26.5908 23.1248 25.9826C22.247 25.3649 21.5199 24.5208 20.9433 23.4502C20.3515 22.3514 20.1246 21.1652 20.2625 19.8915C20.3954 18.6085 20.7919 17.4439 21.4522 16.3977C22.1074 15.3422 22.867 14.5818 23.731 14.1165Z" fill="white"/>
<path d="M35.0875 21.3662C35.8926 21.0808 36.6472 21.0279 37.3512 21.2074C38.0553 21.387 38.6177 21.7721 39.0385 22.3629C39.4284 22.9103 39.575 23.585 39.4784 24.3872C39.3844 25.1744 39.1093 25.9465 38.6532 26.7035C38.2058 27.4544 37.6867 28.0402 37.0959 28.4609C36.6614 28.7704 36.2203 29.0518 35.7723 29.3054C35.0463 29.757 34.4921 30.119 34.1099 30.3912L32.4547 31.5701L32.167 31.1661L32.7052 29.3292L27.0617 21.4055L25.3907 21.9277L25.2801 21.2208L26.7918 20.144C27.5825 19.5809 28.3415 19.001 29.0689 18.4044C29.635 17.9488 30.057 17.622 30.335 17.424C30.9171 17.0094 31.5102 16.7573 32.1142 16.6676C32.7182 16.5779 33.2767 16.645 33.7897 16.8689C34.3053 17.0779 34.7332 17.4213 35.0736 17.8992C35.383 18.3336 35.528 18.8589 35.5085 19.4752C35.4916 20.0765 35.345 20.6982 35.0689 21.3401L35.0875 21.3662ZM33.7783 19.8039C33.2895 19.1175 32.7079 18.6871 32.0336 18.5126C31.3593 18.338 30.6615 18.5076 29.9404 19.0212C29.4191 19.3925 29.0551 19.8743 28.8485 20.4668L31.3083 23.9203L33.1719 22.593C33.7106 22.2093 34.036 21.7746 34.1483 21.2886C34.2544 20.794 34.1279 20.2948 33.769 19.7909L33.7783 19.8039ZM36.7832 27.2497C37.4087 26.8041 37.7926 26.295 37.9347 25.7224C38.0855 25.1435 37.9722 24.5891 37.5947 24.0591C37.1121 23.3814 36.5224 22.9764 35.8257 22.844C35.1377 22.7054 34.3935 22.9016 33.593 23.4324C33.5383 23.4844 33.4589 23.5476 33.3546 23.6218L31.8559 24.6893L34.4827 28.3774C35.2319 28.1974 36.0018 27.8258 36.7925 27.2627L36.7832 27.2497Z" fill="white"/>
</g>
<defs>
<clipPath id="clip0_201_37">
<rect width="60" height="60" fill="white"/>
</clipPath>
</defs>
</svg>
